<svg width="159" height="53" fill="none" xmlns="http://www.w3.org/2000/svg"><path d="M26 52.75c14.36 0 26-11.64 26-26s-11.64-26-26-26-26 11.64-26 26 11.64 26 26 26z" fill="#19191B"/><path d="M40.658 46.608c-.179-.627-.403-1.21-.582-1.838-.942-2.824-2.242-5.827-4.259-7.576 5.559-2.24 8.114-7.8 8.114-12.91 0-4.124-1.659-7.934-4.707-10.758-2.017-1.883-4.528-3.228-7.441-3.99.986-1.21 2.151-2.152 3.496-2.78a8.356 8.356 0 017.307.18 26.3 26.3 0 00-4.976-3.228c-1.12.135-2.241.404-3.317.897-2.197.986-3.855 2.555-5.11 4.393a23.27 23.27 0 00-3.587-.27c-5.513 0-10.22 1.66-13.582 4.753-3.049 2.824-4.752 6.679-4.752 10.758 0 6.814 4.572 12.059 11.88 13.583l.492-2.331c-6.186-1.3-9.996-5.603-9.996-11.252 0-6.32 4.976-13.134 15.914-13.134.806 0 1.569.045 2.33.09-2.555 5.424-2.6 12.237-2.42 15.824l.09 1.165c.538 10.58-1.883 17.931-6.724 20.262-2.645 1.3-5.873.897-8.652-.941a25.556 25.556 0 007.217 3.9c.852-.18 1.659-.449 2.465-.807 3.363-1.614 8.876-6.724 8.07-22.548l-.09-1.166c-.314-6.41.538-11.655 2.51-15.286 7.62 1.659 11.117 7.307 11.117 12.641 0 7.397-5.065 11.073-10.041 11.476v.045h-.18l.27 2.376c2.51-.314 4.393 1.883 6.23 7.351.18.583.404 1.21.584 1.794.224.717.448 1.39.672 2.107.717-.404 1.39-.852 2.062-1.345-.09-.404-.269-.897-.404-1.435z" fill="#fff"/><path d="M112.537 31.881c-.648 1.984-1.259 3.548-1.793 4.654a22.066 22.066 0 01-1.983 3.356c-1.983 2.861-3.242 3.433-3.929 3.433-.229 0-.381-.038-.496-.152-.114-.115-.152-.267-.152-.496 0-.305.076-.84.191-1.64l.953-5.15c.191-1.068.305-1.83.305-2.403 0-.839-.19-1.563-.61-2.135-.42-.61-.992-.916-1.602-.916-.458 0-.992.229-1.488.649-.457.38-1.182 1.144-2.136 2.25l-.534.572.992.84.267-.268c1.411-1.526 2.022-1.678 2.174-1.678.115 0 .229.038.382.267.152.267.229.61.229 1.068 0 .496-.115 1.22-.344 2.136l-.991 3.929-.229 1.03c-.191.724-.305 1.258-.305 1.678 0 .763.228 1.373.686 1.869a2.45 2.45 0 001.755.724c1.335 0 2.746-.8 4.195-2.326.916-.992 1.831-2.289 2.747-3.89l-1.602 6.712 3.242-1.373 2.784-14.303-2.479.762-.229.802zm43.559-.839l-.305.84c-.649 1.983-1.259 3.547-1.793 4.653a22.075 22.075 0 01-1.984 3.356c-1.983 2.86-3.242 3.433-3.928 3.433-.229 0-.382-.038-.496-.152-.115-.115-.153-.267-.153-.496 0-.306.077-.84.191-1.64l.954-5.15c.19-1.068.305-1.83.305-2.403 0-.839-.191-1.564-.611-2.136-.419-.61-.991-.915-1.602-.915-.457 0-.991.229-1.487.648-.458.382-1.183 1.145-2.136 2.25l-.534.573.992.839.267-.267c1.411-1.526 2.021-1.678 2.174-1.678.114 0 .229.038.381.267.153.267.229.61.229 1.068 0 .496-.114 1.22-.343 2.136l-.954 3.928-.229 1.03c-.19.725-.305 1.259-.305 1.678 0 .763.229 1.374.687 1.87a2.447 2.447 0 001.754.724c1.335 0 2.747-.8 4.196-2.326.915-.992 1.831-2.289 2.746-3.891l-1.602 6.675 3.242-1.373 2.785-14.304-2.441.763zm-29.675 9.955c-.763.992-1.488 1.678-2.174 2.136-.649.42-1.297.649-1.984.649-.839 0-1.526-.305-2.06-.916-.534-.648-.801-1.45-.801-2.44v-.154c2.251-.877 4.082-1.907 5.417-3.127 1.411-1.297 2.136-2.632 2.136-3.967 0-.725-.267-1.297-.763-1.755-.496-.457-1.144-.686-1.869-.686-1.221 0-2.441.534-3.662 1.526-1.182.991-2.174 2.288-2.937 3.776-.801 1.525-1.182 3.051-1.182 4.539 0 1.525.419 2.746 1.258 3.7.84.953 1.984 1.41 3.395 1.41a6.133 6.133 0 003.242-.915c.992-.61 1.984-1.602 3.014-2.937l.228-.305-1.029-.839-.229.305zm-2.251-6.408c-.381.687-.839 1.373-1.449 1.984-.763.8-1.869 1.525-3.242 2.212a11.753 11.753 0 011.754-4.463c.992-1.526 1.946-2.288 2.823-2.288.419 0 .648.114.648.763 0 .495-.152 1.106-.534 1.792zm16.668 7.363c-1.068 1.106-1.679 1.335-2.022 1.335-.152 0-.343-.076-.534-.229-.229-.19-.496-.534-.801-.992-.305-.496-.648-1.144-1.068-1.945a41.85 41.85 0 01-1.983-4.5c1.525-1.68 3.127-2.556 4.844-2.556.229 0 .534.038.992.152l.381.077.61-2.785-.496.038c-1.029.038-1.983.229-2.784.572-.839.305-1.64.801-2.479 1.45a14.994 14.994 0 00-1.945 1.907c-.649.763-1.259 1.564-1.755 2.365l6.065-26.357-3.471 1.64-6.599 33.68 2.403-.763.038-.228c.382-2.25 1.183-4.501 2.441-6.714a44.943 44.943 0 002.212 4.54c.611 1.106 1.107 1.868 1.564 2.326.496.496 1.068.763 1.679.763.534 0 1.563-.305 3.814-3.051l.191-.267-.801-.916-.496.458z" fill="#19191B"/><path d="M94.368 41.392c-.153-.534-.344-1.03-.496-1.563-.801-2.403-1.907-4.959-3.624-6.446 4.73-1.908 6.904-6.637 6.904-10.986 0-3.509-1.411-6.75-4.005-9.154-1.716-1.602-3.852-2.746-6.332-3.394.84-1.03 1.831-1.831 2.976-2.365a7.11 7.11 0 016.217.152c-.068-1.763-2.252-2.92-4.234-2.746-.954.114-1.907.343-2.823.763-1.868.839-3.28 2.174-4.348 3.738a19.798 19.798 0 00-3.051-.229c-4.692 0-8.697 1.411-11.558 4.043-2.593 2.403-4.043 5.683-4.043 9.154 0 5.798 3.891 10.26 10.108 11.558l.42-1.984c-5.264-1.106-8.332-4.768-8.332-9.574 0-5.378 4.06-11.175 13.367-11.175.686 0 1.335.038 1.983.076-2.174 4.615-2.386 10.413-2.233 13.464l.076.992c.458 9.002-1.428 15.257-5.548 17.24-2.25 1.106-4.996.763-7.361-.8.47 3.047 3.911 3.787 6.14 3.318a10.381 10.381 0 002.099-.687c2.86-1.373 7.725-5.721 7.039-19.185l-.076-.992c-.267-5.455.284-9.917 1.962-13.007 6.484 1.411 9.285 6.217 9.285 10.756 0 6.294-4.136 9.422-8.37 9.765v.038h-.152l.055 2.022c2.136-.267 3.738 1.602 5.302 6.255.152.496.343 1.03.496 1.526.19.61.335 1.198.572 1.792.364.917 1.233 1.937 2.665 1.937 2.306 0 3.933-3.441 3.933-3.441l-.983-.983s-1.168 1.232-1.602 1.493c-.435.26-1.082.316-1.564 0-.481-.316-.75-.913-.864-1.37z" fill="#19191B" stroke="#19191B" stroke-width=".5"/></svg>