<svg width="138" height="45" fill="none" xmlns="http://www.w3.org/2000/svg"><path d="M22.5 45C34.926 45 45 34.926 45 22.5S34.926 0 22.5 0 0 10.074 0 22.5 10.074 45 22.5 45z" fill="#19191B"/><path d="M35.185 39.685c-.155-.543-.349-1.047-.504-1.59-.814-2.444-1.94-5.044-3.685-6.556 4.81-1.94 7.021-6.75 7.021-11.173 0-3.569-1.435-6.866-4.073-9.31-1.745-1.63-3.918-2.793-6.44-3.453.854-1.047 1.863-1.862 3.026-2.405a7.23 7.23 0 016.324.155 22.759 22.759 0 00-4.306-2.793c-.97.116-1.94.35-2.871.776-1.901.853-3.336 2.211-4.422 3.802a20.135 20.135 0 00-3.104-.233c-4.771 0-8.845 1.435-11.754 4.112-2.638 2.444-4.112 5.78-4.112 9.31 0 5.897 3.957 10.436 10.28 11.755l.427-2.018c-5.354-1.125-8.651-4.849-8.651-9.737 0-5.47 4.306-11.366 13.771-11.366.699 0 1.358.039 2.018.078-2.212 4.694-2.25 10.59-2.095 13.694l.077 1.008c.466 9.155-1.63 15.517-5.819 17.535-2.288 1.125-5.082.775-7.487-.815a22.114 22.114 0 006.246 3.375 10.556 10.556 0 002.134-.698c2.909-1.397 7.68-5.82 6.982-19.513l-.077-1.009c-.272-5.547.465-10.086 2.172-13.228 6.595 1.435 9.62 6.323 9.62 10.94 0 6.4-4.383 9.581-8.689 9.93v.04h-.155l.233 2.055c2.172-.271 3.802 1.63 5.392 6.362.155.504.35 1.048.504 1.552.194.62.388 1.202.582 1.823.62-.349 1.203-.737 1.785-1.164-.078-.349-.233-.775-.35-1.24z" fill="#fff"/><path d="M97.386 26.941c-.561 1.717-1.09 3.07-1.552 4.027a19.105 19.105 0 01-1.716 2.905c-1.716 2.476-2.806 2.97-3.4 2.97-.198 0-.33-.032-.429-.131-.099-.1-.132-.231-.132-.43 0-.264.066-.726.165-1.419l.825-4.456c.165-.924.264-1.584.264-2.08 0-.726-.165-1.353-.528-1.848-.363-.528-.858-.792-1.386-.792-.396 0-.858.198-1.287.561-.397.33-1.024.99-1.849 1.947l-.462.496.858.726.231-.231c1.222-1.32 1.75-1.453 1.882-1.453.099 0 .198.033.33.232.132.23.198.528.198.924 0 .429-.1 1.056-.297 1.848l-.858 3.4-.198.891c-.166.627-.265 1.09-.265 1.453 0 .66.198 1.188.594 1.617a2.12 2.12 0 001.519.627c1.155 0 2.376-.693 3.63-2.013.793-.859 1.585-1.98 2.377-3.367l-1.386 5.81 2.806-1.19 2.41-12.377-2.146.66-.198.693zm37.694-.726l-.264.726c-.561 1.716-1.089 3.07-1.551 4.027a19.192 19.192 0 01-1.717 2.905c-1.716 2.475-2.806 2.97-3.4 2.97-.198 0-.33-.033-.429-.132-.099-.099-.132-.23-.132-.429 0-.264.066-.726.165-1.419l.825-4.456c.165-.924.264-1.584.264-2.08 0-.726-.165-1.353-.528-1.848-.363-.528-.858-.792-1.386-.792-.396 0-.858.198-1.287.56-.396.33-1.024.991-1.849 1.948l-.462.495.858.727.231-.231c1.222-1.32 1.75-1.453 1.882-1.453.099 0 .198.033.33.231.132.231.198.528.198.925 0 .429-.099 1.056-.297 1.848l-.825 3.4-.198.891c-.165.627-.264 1.09-.264 1.452 0 .66.198 1.189.594 1.618.396.396.924.627 1.518.627 1.155 0 2.377-.693 3.631-2.014.792-.858 1.584-1.98 2.377-3.366l-1.387 5.776 2.806-1.188 2.409-12.378-2.112.66zm-25.679 8.615c-.661.858-1.288 1.452-1.882 1.848-.561.363-1.122.562-1.716.562-.726 0-1.321-.265-1.783-.793-.462-.56-.693-1.254-.693-2.112v-.132c1.948-.76 3.532-1.65 4.687-2.707 1.222-1.122 1.849-2.277 1.849-3.433 0-.627-.231-1.122-.66-1.518-.429-.396-.991-.594-1.618-.594-1.056 0-2.112.462-3.169 1.32-1.023.858-1.881 1.98-2.541 3.268-.693 1.32-1.023 2.64-1.023 3.928 0 1.32.363 2.376 1.089 3.202.726.825 1.716 1.22 2.938 1.22.99 0 1.947-.263 2.805-.791.858-.529 1.717-1.387 2.608-2.542l.198-.264-.891-.726-.198.264zm-1.948-5.545c-.33.594-.726 1.188-1.254 1.716-.66.693-1.618 1.32-2.806 1.914a10.16 10.16 0 011.519-3.862c.858-1.32 1.683-1.98 2.442-1.98.363 0 .561.099.561.66 0 .43-.132.957-.462 1.552zm14.423 6.371c-.925.957-1.453 1.155-1.75 1.155-.132 0-.297-.066-.462-.198-.198-.165-.429-.462-.693-.858a36.169 36.169 0 01-2.641-5.578c1.321-1.453 2.707-2.212 4.192-2.212.198 0 .462.033.859.132l.33.066.528-2.41-.429.033c-.892.033-1.717.198-2.41.495-.726.264-1.419.693-2.145 1.255-.529.429-1.123.99-1.684 1.65a17.24 17.24 0 00-1.518 2.046l5.248-22.808-3.004 1.42-5.71 29.145 2.079-.66.033-.198c.331-1.947 1.024-3.895 2.113-5.81a38.725 38.725 0 001.914 3.929c.529.957.958 1.617 1.354 2.013.429.43.924.66 1.452.66.462 0 1.353-.264 3.301-2.64l.165-.231-.693-.793-.429.397z" fill="#19191B"/><path d="M81.665 35.171c-.132-.462-.297-.891-.429-1.353-.693-2.08-1.65-4.291-3.136-5.579 4.093-1.65 5.975-5.743 5.975-9.506 0-3.037-1.222-5.842-3.466-7.922-1.485-1.386-3.334-2.377-5.48-2.938.727-.89 1.585-1.584 2.575-2.046a6.153 6.153 0 015.38.132c-.058-1.526-1.949-2.527-3.663-2.377-.826.1-1.65.297-2.443.66-1.617.727-2.839 1.882-3.763 3.235a17.133 17.133 0 00-2.64-.198c-4.06 0-7.526 1.221-10.002 3.499-2.245 2.08-3.499 4.918-3.499 7.922 0 5.017 3.367 8.88 8.747 10.001l.363-1.716c-4.555-.957-7.21-4.126-7.21-8.285 0-4.654 3.514-9.671 11.568-9.671.594 0 1.155.033 1.716.066-1.882 3.994-2.065 9.01-1.933 11.652l.066.858c.396 7.79-1.236 13.203-4.8 14.92-1.948.957-4.325.66-6.371-.694.407 2.637 3.385 3.278 5.314 2.872a8.988 8.988 0 001.816-.594c2.475-1.189 6.685-4.952 6.091-16.603l-.066-.858c-.23-4.72.246-8.583 1.698-11.256 5.612 1.221 8.036 5.38 8.036 9.308 0 5.446-3.58 8.153-7.243 8.45v.033h-.132l.047 1.75c1.849-.232 3.235 1.386 4.588 5.413.132.429.297.891.43 1.32.164.528.29 1.037.495 1.552.315.793 1.067 1.676 2.306 1.676 1.996 0 3.404-2.978 3.404-2.978l-.85-.851s-1.012 1.066-1.388 1.292c-.375.226-.936.273-1.353 0-.416-.273-.649-.79-.748-1.186z" fill="#19191B" stroke="#19191B" stroke-width=".5"/></svg>