<svg width="34" height="29" fill="none" xmlns="http://www.w3.org/2000/svg"><path d="M22.79 1.763c-7.973-.124-6.78 8.639-5.187 13.036-2.108.58-6.34 2.787-6.405 6.983-.081 5.246 4.099 6.36 11.18 6.47 7.081.11 11.028-.615 11.114-6.123.068-4.406-4.27-6.625-6.447-7.183 1.904-4.343 3.718-13.059-4.255-13.183z" fill="#fff"/><path d="M13.296 21.826c-.055 3.55 4.97 3.45 9.028 3.514 4.057.063 9.095.674 9.322-3.051.26-4.258-4.092-5.295-6.855-6.5-2.111-.92 1.65-1.647 2.018-5.473.46-4.787-1.64-6.417-4.151-6.456-2.898-.045-4.474 1.883-4.537 5.966-.064 4.083 3.778 5.563 2.227 5.894-1.551.332-6.996 2.555-7.052 6.106z" stroke="#A6A6A6" stroke-width="2"/><circle cx="7.764" cy="7.763" r="7.577" transform="rotate(1.425 7.764 7.763)" fill="#fff"/><path d="M5.65 11.171l.134-5.368a.773.773 0 01.794-.755l3.392.085c.428.01.765.365.755.793l-.037 1.482a.773.773 0 01-.793.755l-4.66-.116a.773.773 0 10-.04 1.548l2.323.057" stroke="#19191B" stroke-width="2" stroke-miterlimit="10"/><path d="M7.578 13.872a5.98 5.98 0 10.297-11.955 5.98 5.98 0 00-.297 11.955z" stroke="#19191B" stroke-width="2" stroke-miterlimit="10"/></svg>