<svg width="80" height="67" fill="none" xmlns="http://www.w3.org/2000/svg"><path d="M.362 3.074l-.34 48.262a3 3 0 002.993 3.021l52.648.104a3 3 0 003.006-3.007l-.11-48.347a3 3 0 00-3-2.993L3.364.096A3 3 0 00.362 3.074z" fill="#fff"/><path d="M8.876 45.916L9 12.756a2 2 0 012.004-1.992l8.299.016c.22 0 .44-.036.65-.107l2.793-.953a3 3 0 01.968-.16h9.698c.895 0 1.779.205 2.582.601v0c.8.394 1.68.6 2.572.601l8.172.015a2 2 0 011.996 1.994l.1 30.207a3 3 0 01-3.006 3.01l-4.637-.009m-.005-.404l-23.034.277a2 2 0 01-2.024-2.004l.025-12.854-.057-4.776a5.484 5.484 0 015.417-5.55v0a5.484 5.484 0 015.55 5.418l.124 10.348a3.415 3.415 0 003.455 3.373v0a3.415 3.415 0 003.374-3.456l-.153-12.726a3.104 3.104 0 013.066-3.141v0a3.104 3.104 0 013.142 3.066l.194 16.141" stroke="#19191B" stroke-width="2"/><path d="M33.886 34.002l20.599-.096a2.822 2.822 0 002.594-1.69l.651-1.5c.401-.968 1.449-1.644 2.594-1.641l16.157.19c1.893.005 3.282 1.85 2.63 3.592l-.852 2.373a2.777 2.777 0 01-2.645 1.834h-.149a2.858 2.858 0 00-2.644 1.738L62.795 64.265a2.785 2.785 0 01-2.595 1.786l-16.535-.042c-1.195-.003-2.24-.733-2.635-1.8l-9.793-26.532c-.643-1.794.706-3.68 2.649-3.675z" fill="#fff"/><path d="M72.964 34.941l-4.916-.076c-.82-.013-1.485.54-1.695 1.304l-4.89 18.954c-.206.815-.876 1.316-1.696 1.303l-14.556-.225c-.868-.013-1.697-.589-2.027-1.464l-5.287-13.075c-.576-1.39.246-2.758 1.596-2.737l19.955.309c1.398.021 2.514 1.522 2.126 2.897l-4.111 15.283c-.206.815-.876 1.316-1.696 1.304l-6.989-.108c-.867-.014-1.75-.641-2.085-1.567l-3.287-9.054c-.474-1.338.305-2.656 1.655-2.635l7.905.123c1.35.02 2.456 1.419 2.163 2.795l-.491 2.244c-.2.866-.865 1.418-1.733 1.405l-4.58-.07m.828 11.844c1.097.017 1.894-.91 1.78-2.068-.115-1.159-1.098-2.11-2.195-2.127-1.098-.016-1.895.91-1.78 2.069.115 1.158 1.097 2.11 2.195 2.126zm10.109-.392c1.097.017 1.894-.91 1.78-2.068-.115-1.158-1.098-2.11-2.196-2.127-1.097-.016-1.894.91-1.78 2.069.115 1.158 1.098 2.11 2.196 2.127z" stroke="#A6A6A6" stroke-width="2" stroke-miterlimit="10"/></svg>