<svg width="29" height="36" fill="none" xmlns="http://www.w3.org/2000/svg"><path d="M.985 3l-.15 29.27a3 3 0 002.985 3.015l21.973.113a3 3 0 003.015-2.985l.061-12.04a3 3 0 00-2.984-3.016l-7.514-.038a3 3 0 01-2.93-2.427L13.025 2.473a3 3 0 00-2.93-2.427L4 .016A3 3 0 00.985 3z" fill="#fff"/><path d="M4.483 32.451L4.57 15.6a2 2 0 012.01-1.99l1.477.008a2 2 0 011.94 1.56l.91 4.034a3 3 0 002.912 2.34l7.775.04a2 2 0 011.99 2.01l-.04 7.951a.995.995 0 01-1 .99l-1.673-.008a.982.982 0 01-.977-.987l.012-2.16a1.52 1.52 0 00-1.513-1.528v0a1.52 1.52 0 00-1.528 1.512l-.011 2.16a.981.981 0 01-.987.977l-1.28-.006a.982.982 0 01-.976-.987l.013-2.566a1.115 1.115 0 00-1.11-1.12v0a1.115 1.115 0 00-1.12 1.109l-.013 2.566a.982.982 0 01-.987.976l-3.234-.016a1.054 1.054 0 01-1.049-1.06l.031-6.04.066-12.973.005-.912a1.115 1.115 0 011.12-1.11v0a1.115 1.115 0 001.121-1.109l.005-1.013a1.115 1.115 0 00-1.109-1.12l-.405-.003a.71.71 0 01-.706-.713v0a.71.71 0 01.713-.706l.405.002A1.115 1.115 0 008.477 4.6l.006-1.115" stroke="#19191B" stroke-width="2"/></svg>