<svg width="43" height="45" fill="none" xmlns="http://www.w3.org/2000/svg"><path d="M10.492 9.774l.076 24.774c.003.959.75 1.701 1.71 1.698l18.1-.056a1.727 1.727 0 001.699-1.708l-.06-19.593a1.749 1.749 0 00-.68-1.382l-6.9-5.125a1.696 1.696 0 00-.996-.352l-11.251.035a1.704 1.704 0 00-1.698 1.71z" fill="#fff"/><path d="M22.812 11.12l-8.98.028c-.674.002-1.205.536-1.167 1.175l.205 20.408c.002.639.536 1.17 1.175 1.168l14.694-.046a1.182 1.182 0 001.168-1.175l-.049-15.652c-.002-.674-.536-1.205-1.21-1.168l-3.407.046c-.64.002-1.209-.493-1.21-1.167l-.04-1.313c-.003-.959 1.024-1.53 1.807-1.035l2.667 1.66c.355.212.57.601.57.992l.048 3.797a1.197 1.197 0 01-1.203 1.21l-11.57-.034c-.675.002-1.206.536-1.204 1.175l.005 1.774c.002.64.536 1.17 1.175 1.168l10.01-.067a1.182 1.182 0 011.174 1.168l.003 1.03a1.182 1.182 0 01-1.167 1.174l-10.01.067c-.674.002-1.204.536-1.167 1.21l.003.923c.002.639.536 1.17 1.21 1.168l11.323-.071" stroke="#19191B" stroke-width="2" stroke-miterlimit="10"/><circle cx="33.343" cy="32.636" r="6.65" transform="rotate(-.77 33.343 32.636)" fill="#fff"/><path d="M31.606 35.696l-.063-4.713a.679.679 0 01.67-.688l2.978-.04a.679.679 0 01.689.67l.017 1.301a.679.679 0 01-.67.689l-4.09.055a.679.679 0 10.017 1.358l2.039-.027" stroke="#A6A6A6" stroke-width="2" stroke-miterlimit="10"/><path d="M33.386 38a5.248 5.248 0 10-.14-10.495A5.248 5.248 0 0033.385 38z" stroke="#A6A6A6" stroke-width="2" stroke-miterlimit="10"/></svg>