<svg width="89" height="92" fill="none" xmlns="http://www.w3.org/2000/svg"><path d="M21.712 20.226l.158 51.267c.007 1.983 1.554 3.521 3.537 3.515l37.459-.116c1.91-.006 3.52-1.627 3.514-3.536l-.125-40.544c-.004-1.102-.521-2.202-1.405-2.86L50.57 17.346c-.59-.439-1.325-.73-2.06-.728l-23.282.072a3.526 3.526 0 00-3.515 3.536z" fill="#fff"/><path d="M47.207 23.012l-18.582.058c-1.396.004-2.494 1.109-2.416 2.43l.424 42.233a2.445 2.445 0 002.431 2.416l30.408-.094a2.445 2.445 0 002.416-2.431l-.1-32.391c-.004-1.396-1.11-2.494-2.505-2.416l-7.05.095c-1.322.004-2.5-1.02-2.505-2.416l-.082-2.717c-.006-1.983 2.12-3.165 3.74-2.142l5.519 3.435a2.434 2.434 0 011.181 2.053l.098 7.859a2.477 2.477 0 01-2.49 2.505l-23.944-.073c-1.396.004-2.494 1.11-2.49 2.431l.011 3.673a2.445 2.445 0 002.432 2.416l20.712-.137a2.445 2.445 0 012.431 2.416l.007 2.13a2.445 2.445 0 01-2.417 2.431l-20.712.138c-1.395.004-2.494 1.11-2.416 2.505l.006 1.91c.004 1.321 1.11 2.42 2.505 2.415l23.43-.146" stroke="#19191B" stroke-width="2" stroke-miterlimit="10"/><circle cx="68.999" cy="67.537" r="13.762" transform="rotate(-.77 69 67.537)" fill="#fff"/><path d="M65.404 73.868l-.13-9.751a1.405 1.405 0 011.386-1.425l6.163-.083c.777-.01 1.414.61 1.425 1.387l.036 2.692c.01.778-.61 1.415-1.387 1.425l-8.466.114a1.405 1.405 0 00-1.387 1.425c.01.777.647 1.397 1.425 1.387l4.218-.057" stroke="#A6A6A6" stroke-width="2" stroke-miterlimit="10"/><path d="M69.089 78.636c5.997-.08 10.793-5.008 10.713-11.005-.081-5.997-5.008-10.793-11.005-10.712-5.997.08-10.794 5.007-10.713 11.004.08 5.997 5.008 10.794 11.005 10.713z" stroke="#A6A6A6" stroke-width="2" stroke-miterlimit="10"/></svg>