<svg width="35" height="27" fill="none" xmlns="http://www.w3.org/2000/svg"><path d="M2.026 3.515l19.093-.01c.828 0 1.546-.49 1.87-1.225l.467-1.085c.287-.7 1.042-1.19 1.869-1.19L32.768 0c1.366 0 2.374 1.328 1.907 2.588l-.61 1.714a2.005 2.005 0 01-1.905 1.33h-.108a2.065 2.065 0 00-1.905 1.261L22.963 25.3a2.01 2.01 0 01-1.869 1.296l-11.938.006a2.023 2.023 0 01-1.906-1.294L.121 6.175c-.467-1.294.503-2.66 1.905-2.66z" fill="#fff"/><path d="M31.262 3.544l-3.783-.068a1.49 1.49 0 00-1.402.928l-5.163 13.55c-.218.582-.771.94-1.402.928l-11.2-.203c-.668-.012-1.265-.426-1.455-1.053L3.744 8.254c-.341-.996.393-1.973 1.432-1.954l15.355.277c1.075.02 1.825 1.097 1.425 2.08l-4.293 10.925c-.218.583-.771.94-1.401.928l-5.379-.097c-.667-.012-1.301-.464-1.491-1.128l-1.867-6.488a1.47 1.47 0 011.469-1.88l6.082.11c1.039.018 1.788 1.022 1.462 2.006l-.544 1.604a1.466 1.466 0 01-1.439 1.001l-3.523-.064m1.249 8.606c.877.018 1.585-.637 1.583-1.463-.003-.827-.716-1.512-1.592-1.531-.877-.02-1.585.635-1.582 1.462.002.827.715 1.512 1.591 1.531zm7.299-.306c.876.019 1.584-.636 1.582-1.463-.003-.826-.716-1.512-1.592-1.53-.877-.02-1.585.635-1.582 1.462.002.826.715 1.512 1.591 1.531z" stroke="#19191B" stroke-width="2" stroke-miterlimit="10"/></svg>