<svg width="102" height="108" fill="none" xmlns="http://www.w3.org/2000/svg"><path d="M25.12 22.888l-.44 57.117c-.016 2.21 1.689 3.941 3.898 3.958l41.734.321c2.127.016 3.942-1.77 3.958-3.898l.347-45.17c.01-1.227-.554-2.46-1.53-3.203L57.303 20.025c-.65-.496-1.467-.83-2.285-.836l-25.94-.2a3.93 3.93 0 00-3.958 3.899z" fill="#fff"/><path d="M53.49 26.297l-20.703-.159c-1.555-.012-2.791 1.206-2.72 2.68l-.035 47.055c-.012 1.473 1.206 2.71 2.68 2.721l33.877.26c1.473.012 2.71-1.206 2.721-2.68l.278-36.086c.012-1.555-1.206-2.792-2.762-2.722l-7.856.021c-1.473-.011-2.774-1.167-2.762-2.721l-.058-3.029c.017-2.21 2.4-3.5 4.191-2.34l6.108 3.892a2.712 2.712 0 011.292 2.302l.014 8.756a2.76 2.76 0 01-2.803 2.761l-26.676-.369c-1.555-.012-2.791 1.206-2.803 2.68l-.031 4.09c-.011 1.474 1.206 2.71 2.68 2.722l23.076.096c1.473.01 2.691 1.248 2.68 2.72l-.018 2.374c-.012 1.473-1.248 2.69-2.721 2.68l-23.077-.096c-1.555-.012-2.792 1.206-2.722 2.761l-.016 2.128c-.012 1.473 1.206 2.71 2.761 2.722l26.105.119" stroke="#19191B" stroke-width="2" stroke-miterlimit="10"/><path d="M58.15 60.512l-.256 33.49a2.274 2.274 0 002.285 2.321l24.47.188c1.248.01 2.311-1.037 2.32-2.285l.205-26.486c.005-.72-.325-1.441-.898-1.878l-9.255-7.028c-.381-.291-.86-.487-1.34-.49l-15.21-.118a2.304 2.304 0 00-2.32 2.286z" fill="#fff"/><path d="M74.786 62.511l-12.14-.093c-.91-.007-1.636.707-1.595 1.571l-.02 27.59a1.597 1.597 0 001.571 1.596l19.864.153a1.597 1.597 0 001.596-1.572l.163-21.159c.007-.912-.708-1.637-1.62-1.596L78 69.014c-.864-.007-1.626-.685-1.62-1.596l-.034-1.776c.01-1.295 1.408-2.052 2.458-1.373l3.581 2.283c.478.292.762.822.758 1.35l.008 5.134a1.618 1.618 0 01-1.644 1.619l-15.64-.216c-.912-.007-1.638.707-1.644 1.57l-.019 2.4a1.597 1.597 0 001.572 1.595l13.53.056a1.597 1.597 0 011.572 1.596l-.011 1.39a1.597 1.597 0 01-1.596 1.572l-13.53-.056c-.912-.007-1.637.707-1.596 1.62l-.01 1.247c-.007.863.707 1.589 1.62 1.596l15.305.07" stroke="#A6A6A6" stroke-width="2" stroke-miterlimit="10"/></svg>