<svg width="39" height="33" fill="none" xmlns="http://www.w3.org/2000/svg"><path d="M.164 4.005L.021 24.23a3 3 0 002.994 3.02l22.326.045a3 3 0 003.006-3.007l-.046-20.26a3 3 0 00-2.999-2.993L3.165 1.026a3 3 0 00-3 2.98z" fill="#fff"/><path d="M4.29 23.168l.056-14.992A2 2 0 016.35 6.183l2.806.006a2 2 0 00.65-.108l1.062-.362c.233-.08.477-.12.723-.12h4.556c.432 0 .86.1 1.247.29v0c.387.191.812.29 1.243.291l3.673.007c.685.001 1.24.555 1.242 1.24l.042 12.763a3 3 0 01-3.006 3.01l-.683-.002m-.002-.195l-10.083.121a2 2 0 01-2.024-2.004l.01-5.163-.027-2.308a2.65 2.65 0 012.618-2.681v0a2.65 2.65 0 012.681 2.617l.06 5a1.65 1.65 0 001.67 1.63v0a1.65 1.65 0 001.63-1.67l-.074-6.15a1.5 1.5 0 011.482-1.517v0a1.5 1.5 0 011.518 1.482l.094 7.8" stroke="#19191B" stroke-width="2"/><path d="M16.375 17.41l9.954-.046a1.364 1.364 0 001.253-.817l.315-.725c.194-.467.7-.794 1.254-.792l7.807.091c.915.003 1.587.894 1.271 1.736l-.412 1.147a1.34 1.34 0 01-1.278.886h-.072a1.381 1.381 0 00-1.277.84l-4.845 12.305c-.194.514-.7.864-1.254.863l-7.99-.02a1.354 1.354 0 01-1.274-.87l-4.732-12.821c-.311-.868.341-1.78 1.28-1.777z" fill="#fff"/><path d="M36.43 18.03l-2.537-.059a1 1 0 00-.943.612l-3.512 8.995a.965.965 0 01-.943.612l-7.51-.176c-.447-.01-.845-.288-.97-.706l-2.052-6.246c-.225-.664.27-1.311.967-1.295l10.293.242c.721.017 1.22.736.948 1.388l-2.919 7.252a.965.965 0 01-.943.613l-3.605-.085a1.068 1.068 0 01-.996-.756l-1.228-4.323a.98.98 0 01.992-1.245l4.078.095c.696.017 1.195.687.972 1.34l-.37 1.066a.983.983 0 01-.969.66l-2.362-.055m.829 5.782c.586.018 1.061-.414 1.062-.965.002-.55-.472-1.01-1.057-1.027-.585-.017-1.06.415-1.062.965 0 .55.473 1.01 1.058 1.027zm4.886-.189c.585.017 1.06-.415 1.061-.965.001-.55-.472-1.01-1.057-1.027-.586-.017-1.06.415-1.062.965-.001.55.472 1.01 1.058 1.027z" stroke="#A6A6A6" stroke-width="2" stroke-miterlimit="10"/></svg>