<svg width="73" height="56" fill="none" xmlns="http://www.w3.org/2000/svg"><path d="M4.193 7.605l39.511-.02a4.214 4.214 0 003.868-2.536l.966-2.245c.595-1.448 2.157-2.462 3.868-2.463L67.81.333c2.828-.002 4.913 2.748 3.947 5.355l-1.264 3.548c-.594 1.666-2.156 2.752-3.942 2.753h-.223a4.27 4.27 0 00-3.942 2.609L47.522 52.686a4.16 4.16 0 01-3.868 2.681l-24.704.013c-1.786 0-3.349-1.085-3.945-2.677L.252 13.11c-.969-2.678 1.039-5.503 3.94-5.504z" fill="#fff"/><path d="M61.216 7.072l-7.353-.06c-1.225-.01-2.219.83-2.532 1.984L44.057 37.62c-.305 1.231-1.307 1.994-2.532 1.984l-21.771-.179c-1.298-.01-2.54-.869-3.035-2.184l-7.934-19.65c-.864-2.09.363-4.161 2.381-4.145l29.845.245c2.09.018 3.764 2.268 3.186 4.345l-6.118 23.082c-.305 1.231-1.306 1.994-2.532 1.984l-10.453-.086c-1.297-.01-2.619-.947-3.122-2.339l-4.934-13.611c-.712-2.011.45-4.006 2.469-3.99l11.823.097c2.018.017 3.675 2.113 3.241 4.19l-.73 3.388c-.298 1.308-1.292 2.148-2.59 2.137l-6.848-.056m1.313 17.59c1.642.012 2.83-1.388 2.655-3.127-.175-1.74-1.647-3.16-3.289-3.172-1.642-.013-2.83 1.388-2.655 3.127.175 1.74 1.648 3.16 3.29 3.172zm15.101-.632c1.642.013 2.83-1.387 2.656-3.127-.175-1.74-1.648-3.16-3.29-3.172-1.641-.012-2.83 1.388-2.655 3.127.175 1.74 1.648 3.16 3.29 3.172z" stroke="#19191B" stroke-width="2" stroke-miterlimit="10"/></svg>