<svg width="28" height="28" fill="none" xmlns="http://www.w3.org/2000/svg"><rect width="27.318" height="27.318" rx="7" fill="#fff"/><circle cx="8.901" cy="12.917" r="1" stroke="#A6A6A6" stroke-width=".874"/><circle cx="8.901" cy="17.515" r="1" stroke="#A6A6A6" stroke-width=".874"/><circle cx="13.499" cy="12.917" r="1" stroke="#A6A6A6" stroke-width=".874"/><circle cx="13.499" cy="17.515" r="1" stroke="#A6A6A6" stroke-width=".874"/><path d="M18.385 5.733v0a4.023 4.023 0 014.023 4.023v6.507a7 7 0 01-7 7h-3.53a7 7 0 01-7-7v-7.33a3.2 3.2 0 013.2-3.2v0c1.01 0 1.83-.82 1.83-1.83v-.326" stroke="#A6A6A6" stroke-width="2"/><circle cx="18.098" cy="12.917" r="1" stroke="#19191B" stroke-width=".874"/><circle cx="13.327" cy="12.917" r="1" stroke="#19191B" stroke-width=".874"/><circle cx="8.652" cy="12.917" r="1" stroke="#A6A6A6" stroke-width=".874"/><circle cx="18.098" cy="17.515" r="1" stroke="#A6A6A6" stroke-width=".874"/><circle cx="13.327" cy="17.515" r="1" stroke="#19191B" stroke-width=".874"/><circle cx="8.652" cy="17.515" r="1" stroke="#19191B" stroke-width=".874"/><path d="M11.344 9.038h3.09c.833 0 1.508-.676 1.508-1.51v-.286c0-.675.547-1.222 1.222-1.222v0c.674 0 1.221-.547 1.221-1.221V3.577" stroke="#A6A6A6" stroke-width="2"/></svg>