<svg width="59" height="74" fill="none" xmlns="http://www.w3.org/2000/svg"><path d="M.997 3L.654 69.988a3 3 0 002.985 3.015l51.887.265a3 3 0 003.015-2.984l.16-31.333a3 3 0 00-2.984-3.016l-21.387-.109A3 3 0 0131.4 33.4L25.393 2.536A3 3 0 0022.462.11L4.012.015A3 3 0 00.997 3z" fill="#fff"/><path d="M8.22 67.153l.189-37.01a2 2 0 012.01-1.99l6.896.035a2 2 0 011.94 1.56l2.818 12.499a3 3 0 002.911 2.34l20.782.106a2 2 0 011.99 2.01l-.096 18.593a2.06 2.06 0 01-2.07 2.048l-3.46-.017a2.031 2.031 0 01-2.02-2.042l.023-4.47a3.146 3.146 0 00-3.13-3.162v0a3.146 3.146 0 00-3.162 3.13l-.023 4.47a2.031 2.031 0 01-2.042 2.02l-2.649-.013a2.031 2.031 0 01-2.02-2.041l.026-5.31a2.307 2.307 0 00-2.295-2.319v0a2.307 2.307 0 00-2.319 2.296l-.027 5.31a2.031 2.031 0 01-2.041 2.02l-6.876-.035a2 2 0 01-1.99-2.01l.066-12.682.137-26.846.01-1.887a2.307 2.307 0 012.318-2.296v0a2.307 2.307 0 002.32-2.295l.01-2.097a2.307 2.307 0 00-2.295-2.32l-.84-.003a1.468 1.468 0 01-1.46-1.476v0a1.468 1.468 0 011.476-1.46l.839.004a2.307 2.307 0 002.319-2.296l.011-2.307" stroke="#19191B" stroke-width="2"/></svg>