<svg width="57" height="57" fill="none" xmlns="http://www.w3.org/2000/svg"><rect width="56.531" height="56.531" rx="7" fill="#fff"/><circle cx="18.421" cy="26.731" r="1.974" stroke="#A6A6A6" stroke-width="2"/><circle cx="18.421" cy="36.246" r="1.974" stroke="#A6A6A6" stroke-width="2"/><circle cx="27.936" cy="26.731" r="1.974" stroke="#A6A6A6" stroke-width="2"/><circle cx="27.936" cy="36.246" r="1.974" stroke="#A6A6A6" stroke-width="2"/><path d="M38.046 11.863h1.326a7 7 0 017 7v22.278a7 7 0 01-7 7H17.095a7 7 0 01-7-7V18.486a6.623 6.623 0 016.622-6.623v0a3.785 3.785 0 003.785-3.784v-.676" stroke="#A6A6A6" stroke-width="2"/><circle cx="37.451" cy="26.731" r="1.974" stroke="#19191B" stroke-width="2"/><circle cx="27.579" cy="26.731" r="1.974" stroke="#19191B" stroke-width="2"/><circle cx="17.905" cy="26.731" r="1.974" stroke="#A6A6A6" stroke-width="2"/><circle cx="37.451" cy="36.246" r="1.974" stroke="#A6A6A6" stroke-width="2"/><circle cx="27.579" cy="36.246" r="1.974" stroke="#19191B" stroke-width="2"/><circle cx="17.905" cy="36.246" r="1.974" stroke="#19191B" stroke-width="2"/><path d="M23.476 18.702h7.515a2 2 0 002-2v-2.244a2 2 0 012-2h1.055a2 2 0 002-2V7.403" stroke="#A6A6A6" stroke-width="2"/></svg>