<svg width="36" height="36" fill="none" xmlns="http://www.w3.org/2000/svg"><circle cx="14.739" cy="14.739" r="14.739" fill="#fff"/><path d="M16.57 11.636c-1.987-1.024-4.034.062-4.655 1.458m.838 4.22a3.482 3.482 0 01-1.198-2.14m1.88 2.544c1.397.744 3.662.34 4.593-1.52a3.19 3.19 0 00.372-1.46m-1.707 9.31c.093-.31.28-.528.59-.621.434-.155.9-.28 1.303-.466.435-.155.776-.093 1.148.187.341.279.652.527 1.024.775.124.093.31.217.466.249a.718.718 0 00.682-.156c.559-.558 1.148-1.086 1.707-1.613.03-.031.062-.031.093-.062.03-.062.062-.093.093-.155.062-.218 0-.466-.124-.683-.062-.093-.124-.217-.186-.31-.218-.404-.466-.807-.683-1.21a.657.657 0 010-.59l.652-1.396c.186-.435.527-.683.993-.714.496-.031.962-.093 1.427-.186.403-.093.59-.248.62-.652.063-.775.094-1.52.156-2.296.03-.403-.125-.59-.497-.713l-.28-.094c-.464-.124-.93-.248-1.395-.34-.342-.094-.528-.25-.652-.56-.155-.465-.341-.961-.527-1.458a.822.822 0 01.062-.713c.093-.125.155-.249.248-.373.28-.372.558-.776.869-1.179.155-.217.155-.465.03-.714-.061-.093-.092-.186-.186-.279-.496-.558-.992-1.117-1.52-1.675-.186-.155-.372-.187-.558-.124a2.538 2.538 0 00-.59.279c-.372.186-.714.434-1.055.651-.31.187-.62.187-.962.062-.31-.155-.651-.31-.962-.434-.806-.372-.9-.496-1.024-1.396-.062-.404-.093-.838-.186-1.241-.093-.404-.31-.59-.683-.621-.713-.062-1.458-.093-2.172-.124-.527 0-.713.124-.837.62a24.64 24.64 0 00-.342 1.428c-.093.372-.279.682-.651.776-.528.155-1.086.372-1.614.527-.217.062-.403 0-.59-.093-.092-.093-.216-.155-.34-.248-.373-.28-.776-.559-1.18-.87-.217-.154-.465-.154-.713-.03-.093.062-.218.093-.28.186-.527.465-1.055.962-1.613 1.427-.28.218-.31.497-.155.838.093.217.186.404.31.59l.559.93c.186.28.186.59.062.87-.218.527-.466.992-.714 1.52-.124.217-.28.341-.465.372-.249.031-.466.093-.745.124a9.54 9.54 0 00-1.055.155c-.497.094-.683.28-.714.807a49.489 49.489 0 00-.124 2.141c0 .434.186.683.59.807a23.9 23.9 0 001.613.403c.31.093.559.28.652.62.155.528.372 1.025.527 1.552.093.248.031.497-.093.714a4.735 4.735 0 01-.341.496c-.28.342-.528.652-.745 1.024-.186.28-.155.62.093.9.186.217.342.435.528.62.341.404.341.373.713.745l.62.528c.28.093.56-.031.777-.186.403-.248.806-.435 1.148-.683.341-.217.713-.248 1.086-.03.465.247.93.465 1.396.682.217.124.341.279.372.496.094.59.187 1.21.28 1.8.03.31.217.496.527.558.403.062.838.093 1.241.155h1.272c.28 0 .466-.124.559-.372l.465-1.955z" stroke="#19191B" stroke-width="2" stroke-miterlimit="10"/><circle cx="26.442" cy="26.442" r="6.853" transform="rotate(-55.504 26.442 26.442)" fill="#fff"/><path d="M25.735 24.924c-.915.49-1.038 1.561-.667 2.167a1.589 1.589 0 001.838.79m.334-.155c.653-.34 1.095-1.313.627-2.16a1.478 1.478 0 00-.46-.527m3.117 3.105a.397.397 0 01-.083-.39c.055-.207.13-.418.165-.621a.516.516 0 01.374-.391 5.87 5.87 0 00.567-.188.626.626 0 00.217-.113.334.334 0 00.12-.303c-.066-.36-.113-.726-.168-1.078-.004-.02.004-.032 0-.052-.015-.029-.019-.049-.035-.077a.424.424 0 00-.294-.132c-.052 0-.116-.01-.168-.01-.212-.024-.431-.035-.643-.058a.306.306 0 01-.226-.155l-.364-.617a.515.515 0 01-.012-.569 4.88 4.88 0 00.305-.596c.07-.179.06-.29-.086-.409-.281-.228-.559-.436-.84-.664-.146-.118-.258-.108-.404.002l-.109.083c-.17.145-.34.291-.498.445-.126.106-.234.137-.386.103-.22-.063-.458-.123-.698-.182a.382.382 0 01-.257-.212c-.023-.068-.054-.125-.077-.193-.07-.205-.15-.418-.223-.643-.043-.117-.138-.183-.265-.2-.052-.001-.096-.014-.157-.002-.344.043-.689.086-1.042.14-.108.031-.17.095-.194.182a1.179 1.179 0 00-.049.3c-.026.191-.021.387-.028.575a.489.489 0 01-.23.385c-.14.078-.29.168-.42.255-.354.21-.426.214-.804.024-.17-.082-.345-.185-.524-.255-.18-.07-.308-.037-.418.098-.212.257-.42.534-.62.8-.138.202-.14.306.018.484.145.17.303.349.457.507.118.133.188.286.125.454-.079.243-.143.514-.222.757-.034.1-.107.154-.191.201-.06.011-.117.043-.185.066-.205.069-.419.15-.644.223-.116.042-.182.137-.2.265 0 .052-.02.108-.002.156.04.325.091.658.122.994.01.164.109.25.28.28.108.022.204.035.308.037l.504.03a.407.407 0 01.35.206c.144.222.257.44.394.674.05.104.057.196.02.276-.053.103-.087.203-.148.318-.087.15-.16.31-.219.445-.095.215-.072.335.122.486.257.212.522.412.787.611.167.115.31.109.465-.013.198-.162.384-.33.579-.512.117-.095.254-.14.41-.086.242.079.49.126.733.206.12.03.198.119.249.223.035.077.073.174.1.262.057.197.11.374.196.555.058.145.197.223.37.201.132-.014.256-.016.377-.038.244-.025.232-.033.473-.078l.365-.099c.11-.082.135-.222.133-.346.011-.22.046-.424.04-.62a.458.458 0 01.275-.424c.218-.113.424-.234.63-.355.104-.05.196-.058.287-.012l.764.367c.127.07.247.047.353-.055.13-.139.256-.297.386-.435l.335-.488c.073-.107.075-.21.004-.312l-.626-.693z" stroke="#A6A6A6" stroke-width="2" stroke-miterlimit="10"/></svg>