<svg width="49" height="52" fill="none" xmlns="http://www.w3.org/2000/svg"><path d="M11.95 10.846l-.212 27.601a1.874 1.874 0 001.884 1.913l20.167.155c1.028.008 1.904-.856 1.912-1.884l.168-21.828a1.948 1.948 0 00-.74-1.548l-7.627-5.792c-.314-.24-.708-.401-1.104-.404l-12.535-.097a1.899 1.899 0 00-1.913 1.884z" fill="#fff"/><path d="M25.66 12.494l-10.005-.077c-.75-.006-1.349.582-1.314 1.295l-.017 22.738a1.316 1.316 0 001.295 1.315l16.37.126a1.317 1.317 0 001.316-1.295l.134-17.438c.005-.752-.583-1.35-1.335-1.316l-3.796.01c-.712-.005-1.34-.563-1.335-1.315l-.028-1.463c.008-1.068 1.16-1.692 2.026-1.131l2.951 1.881c.394.24.628.677.624 1.112l.007 4.232a1.333 1.333 0 01-1.354 1.334l-12.891-.178c-.751-.006-1.35.582-1.355 1.294l-.015 1.977a1.317 1.317 0 001.295 1.315l11.152.046c.711.006 1.3.604 1.295 1.315l-.01 1.147a1.317 1.317 0 01-1.314 1.295l-11.152-.046c-.751-.006-1.349.583-1.315 1.334l-.008 1.028c-.005.712.583 1.31 1.334 1.316l12.615.057" stroke="#19191B" stroke-width="2" stroke-miterlimit="10"/><path d="M27.912 29.027l-.124 16.184a1.099 1.099 0 001.104 1.122l11.825.09a1.128 1.128 0 001.122-1.104l.098-12.799a1.143 1.143 0 00-.433-.907l-4.473-3.397a1.108 1.108 0 00-.647-.237l-7.35-.056a1.113 1.113 0 00-1.122 1.104z" fill="#fff"/><path d="M35.95 29.993l-5.865-.045c-.44-.003-.791.342-.771.76l-.01 13.332a.772.772 0 00.76.771l9.598.074a.772.772 0 00.771-.76l.079-10.224a.749.749 0 00-.783-.772l-2.226.007c-.417-.004-.786-.331-.782-.772l-.017-.858c.005-.626.68-.992 1.188-.663l1.73 1.103c.231.14.368.397.366.652l.005 2.481a.782.782 0 01-.795.782l-7.558-.104a.777.777 0 00-.794.759l-.01 1.16a.772.772 0 00.76.77l6.539.027a.772.772 0 01.759.772l-.005.672a.772.772 0 01-.771.76l-6.539-.028a.75.75 0 00-.771.782l-.005.603a.777.777 0 00.783.772l7.396.033" stroke="#A6A6A6" stroke-width="2" stroke-miterlimit="10"/></svg>